<svg version="1.1" xmlns="http://www.w3.org/2000/svg" viewBox="0 0 867 453" width="2601" height="1359">
  <!-- svg-source:excalidraw -->
  
  <defs>
    <style>
      @font-face {
        font-family: "Virgil";
        src: url("https://unpkg.com/@excalidraw/excalidraw@0.13.0-4d26993/dist/excalidraw-assets/Virgil.woff2");
      }
      @font-face {
        font-family: "Cascadia";
        src: url("https://unpkg.com/@excalidraw/excalidraw@0.13.0-4d26993/dist/excalidraw-assets/Cascadia.woff2");
      }
    </style>
  </defs>
  <rect x="0" y="0" width="867" height="453" fill="#ffffff"></rect><g transform="translate(14 11) rotate(0 70.5 12.5)"><text x="0" y="18" font-family="Virgil, Segoe UI Emoji" font-size="20px" fill="#000000" text-anchor="start" style="white-space: pre;" direction="ltr">Base url page</text></g><g transform="translate(471 10) rotate(0 106.5 12.5)"><text x="0" y="18" font-family="Virgil, Segoe UI Emoji" font-size="20px" fill="#000000" text-anchor="start" style="white-space: pre;" direction="ltr">Chapter/Entry images</text></g><g stroke-linecap="round" transform="translate(11 45) rotate(0 193 199)"><path d="M-1.14 1.79 C133.27 0.8, 267.6 0.26, 385.63 0.36 M0.07 -0.58 C101.56 -0.26, 200.75 -0.67, 386.83 0.3 M387.62 2.03 C385.08 127.68, 384.27 257.21, 384.39 396.92 M386.73 -1.02 C383.83 105.72, 382.41 212.8, 386.75 397.7 M386.15 396.83 C230.95 394.53, 79.18 396.24, -0.43 398.86 M385.73 398.18 C273.66 399.92, 164.27 400.45, -0.53 397.43 M-0.45 397.4 C3.01 313.64, 4.17 232.78, 0.07 0.55 M0.56 397.34 C-0.11 251.8, 0.86 104.94, 0.47 -0.76" stroke="#000000" stroke-width="1" fill="none"></path></g><g stroke-linecap="round" transform="translate(10 45) rotate(0 193.5 16.5)"><path d="M-0.41 1.79 C124.76 -2.19, 248.71 -3.09, 386.08 1.47 M0.93 1.07 C126.87 2.91, 255.59 2.55, 387.24 -0.16 M386.44 0.36 C385.49 17.04, 384.65 24.25, 385.72 30.12 M388.92 -1.69 C386.85 9.73, 388.73 20.96, 388.92 31.72 M384.83 32.24 C292.84 31.69, 200.44 31.6, -0.28 32.11 M385.9 32.16 C248.13 33.37, 107.25 33.12, -1.07 32.2 M-0.14 31.06 C2.04 25.97, 0.26 15.4, 2.75 -0.06 M-0.3 34.06 C1.08 23.37, 0.5 10.46, 0.43 -0.95" stroke="#000000" stroke-width="1" fill="none"></path></g><g stroke-linecap="round" transform="translate(97 99) rotate(0 107.5 161.5)"><path d="M0.33 1.87 C80.21 -2.34, 160.16 -0.67, 216.02 0.2 M-0.75 0.98 C55.08 -2.98, 108.05 -3.65, 216.68 1.24 M213.63 2.75 C212.42 124.37, 213.49 249.36, 215.71 324.78 M214.6 -0.7 C220.22 67.75, 220.65 135.35, 214.17 323.09 M213.38 324.4 C160.51 323.06, 106.88 320.47, 2.13 322.19 M216.1 322.52 C146.45 319.45, 77.89 319.11, -0.33 322.66 M1.33 324.56 C0.24 235.23, 2.07 146.1, 0.59 1.37 M0.97 323.68 C1.25 243.87, 0.98 165.93, -0.88 0.42" stroke="#000000" stroke-width="1" fill="none"></path></g><g transform="translate(113 112) rotate(0 51.5 137.5)"><text x="0" y="18" font-family="Virgil, Segoe UI Emoji" font-size="20px" fill="#000000" text-anchor="start" style="white-space: pre;" direction="ltr">Chapter 1</text><text x="0" y="43" font-family="Virgil, Segoe UI Emoji" font-size="20px" fill="#000000" text-anchor="start" style="white-space: pre;" direction="ltr">Chapter 2</text><text x="0" y="68" font-family="Virgil, Segoe UI Emoji" font-size="20px" fill="#000000" text-anchor="start" style="white-space: pre;" direction="ltr">Chapter 3</text><text x="0" y="93" font-family="Virgil, Segoe UI Emoji" font-size="20px" fill="#000000" text-anchor="start" style="white-space: pre;" direction="ltr">Chapter 4</text><text x="0" y="118" font-family="Virgil, Segoe UI Emoji" font-size="20px" fill="#000000" text-anchor="start" style="white-space: pre;" direction="ltr">Chapter 5</text><text x="0" y="143" font-family="Virgil, Segoe UI Emoji" font-size="20px" fill="#000000" text-anchor="start" style="white-space: pre;" direction="ltr">Chapter 5</text><text x="0" y="168" font-family="Virgil, Segoe UI Emoji" font-size="20px" fill="#000000" text-anchor="start" style="white-space: pre;" direction="ltr">Chapter 6</text><text x="0" y="193" font-family="Virgil, Segoe UI Emoji" font-size="20px" fill="#000000" text-anchor="start" style="white-space: pre;" direction="ltr">Chapter 7</text><text x="0" y="218" font-family="Virgil, Segoe UI Emoji" font-size="20px" fill="#000000" text-anchor="start" style="white-space: pre;" direction="ltr">Chapter 8</text><text x="0" y="243" font-family="Virgil, Segoe UI Emoji" font-size="20px" fill="#000000" text-anchor="start" style="white-space: pre;" direction="ltr">Chapter 9</text><text x="0" y="268" font-family="Virgil, Segoe UI Emoji" font-size="20px" fill="#000000" text-anchor="start" style="white-space: pre;" direction="ltr">...</text></g><g stroke-linecap="round" transform="translate(471 45) rotate(0 193 199)"><path d="M-0.14 1.75 C126.43 4.42, 254.55 1.8, 385.04 -0.56 M-0.08 0.34 C121.97 5.16, 244.84 3.09, 385.66 -0.22 M385.74 -1.82 C386.23 116.42, 389.66 236.17, 385.27 399.41 M385.33 0.39 C382.44 99.25, 383.4 195.16, 385.85 398.43 M385.67 395.94 C289.83 396.85, 189.94 399.8, 1.76 399.98 M386.23 397.46 C247.57 397.28, 111.51 397.89, -1.05 397.92 M1.96 396.2 C-2.79 313.86, -5.21 234.08, -1.82 -0.85 M0.54 397.35 C2.32 268.08, 1.97 137.37, 0.11 -0.15" stroke="#000000" stroke-width="1" fill="none"></path></g><g stroke-linecap="round" transform="translate(470 45) rotate(0 193.5 16.5)"><path d="M1.43 -1.48 C112.62 2.1, 227.05 3.45, 386.8 -2.15 M0.99 0.09 C112.53 1.23, 226.99 1.52, 387.44 -0.7 M384.54 3.45 C387.41 8.24, 388.95 16.9, 384.3 34.59 M388.99 0.81 C385.34 7.71, 387.97 15.03, 385.2 32.99 M385.87 33.47 C278.13 38.8, 167.63 38.37, 0.96 32.85 M386.57 33.76 C263.57 28.85, 139.69 28.82, 0.97 33.82 M-2.64 30.41 C2.89 17.07, -0.96 8.66, -1.62 -0.45 M1.19 33.23 C1.38 21.74, 0.11 8.32, 0.27 -1.02" stroke="#000000" stroke-width="1" fill="none"></path></g><g stroke-linecap="round" transform="translate(578 98) rotate(0 89.5 30.5)"><path d="M-1.22 -0.68 C40.28 -2.65, 80.85 -3, 180.4 0.5 M-0.94 0.59 C63.21 1.14, 129.64 1.33, 179.33 -1.69 M182.27 2.54 C182.75 22.93, 181.88 44.1, 182.27 59.15 M178.44 0.7 C177.82 20.32, 178.49 42.24, 177.91 59.96 M177.22 62.66 C124.48 56.97, 72.07 57.43, -1.68 58.47 M179.84 60.38 C116.26 58.87, 50.03 60.43, 0.43 61.82 M3.05 63.18 C0.29 46.51, -3.77 28.71, 3.92 -0.66 M-1.48 62.83 C-1.84 44.15, -2.91 23.67, -1.12 1.17" stroke="#000000" stroke-width="1" fill="none"></path></g><g stroke-linecap="round" transform="translate(661 175) rotate(0 48.5 27.5)"><path d="M0.85 1.65 C28.31 0.01, 60.4 1.24, 99.18 0.84 M1.96 -0.33 C30.05 2.76, 58.71 -0.23, 98.83 -0.92 M94.75 2.34 C92.46 21.2, 96.28 45.05, 97.52 51.98 M97.71 -0.28 C98 18.36, 97.56 35.52, 97.31 55.85 M93.49 53.86 C63.41 52.37, 24.76 54.57, 0.88 55.39 M95.67 55.57 C65.51 54.93, 31.53 54.68, -1.27 54.8 M1.8 54.44 C-2.67 40.39, 3.7 32.39, -3.84 -1.13 M0.23 55.15 C1 43.01, -0.21 29.72, -0.8 0.82" stroke="#000000" stroke-width="1" fill="none"></path></g><g stroke-linecap="round" transform="translate(579 175) rotate(0 32 65)"><path d="M-3.02 0.28 C16.94 -0.62, 40.99 -0.72, 67.56 2.95 M0.85 1.62 C24.4 0.77, 45.23 -0.77, 65.68 -1.78 M64.39 1.31 C60.08 43.2, 60.45 90.02, 65.57 131.07 M63.8 -1.49 C62.74 32.51, 65.27 65.75, 62.22 128.9 M62.87 127.47 C37.77 130.84, 17.08 129.06, 0.61 132.05 M64.82 128.45 C49.21 129.95, 29.49 128.92, -0.85 128.76 M0.86 132.92 C0.15 95.8, 3.26 61.23, 1.92 2.57 M1.45 128 C-0.16 81.99, -3.3 31.28, 0.34 -0.12" stroke="#000000" stroke-width="1" fill="none"></path></g><g stroke-linecap="round" transform="translate(659 246) rotate(0 51.5 49.5)"><path d="M2.21 -3.84 C20.6 -3.98, 40.91 0.63, 103.47 0.29 M0.75 -0.8 C33.28 -0.61, 66.41 1.4, 101.04 -0.58 M102.56 0.76 C102.63 28.43, 101.63 50.3, 105.97 97.24 M104.12 -1.41 C105.72 32.45, 105.57 70.12, 101.16 98.74 M105.82 98.53 C66.93 97.2, 40.32 100.2, -2.44 101.56 M102.13 98.08 C73.92 100.17, 49.46 101.22, 1.42 97.26 M3.67 95.61 C2.63 76.54, 1.81 54.92, -1.43 0.04 M-1.26 99.74 C0.3 66.99, 0.33 36.74, 0.17 -0.49" stroke="#000000" stroke-width="1" fill="none"></path></g><g stroke-linecap="round" transform="translate(582 317) rotate(0 30.5 14)"><path d="M-2.24 -1.03 C18.73 2.65, 41.43 0.55, 64.24 -0.17 M-1.27 1.81 C15.54 1.81, 27.27 0.36, 59.42 -1.01 M57.17 -2.74 C63.7 5.38, 64.16 16.91, 61.27 31.12 M62.22 -0.76 C62.22 4.73, 61.1 13.43, 60.59 27.43 M64.9 31.36 C44.51 28.3, 22.99 25.91, 3.55 29.01 M61.63 29.25 C47.6 28.53, 29.62 29.38, -1.11 27.81 M2.51 30.26 C0.41 16.15, 0.9 7.05, -3.61 2.41 M-1.96 29.8 C-0.24 15.11, 0.67 5.96, -0.68 -0.12" stroke="#000000" stroke-width="1" fill="none"></path></g><g stroke-linecap="round" transform="translate(585 362) rotate(0 88 30)"><path d="M3.18 -0.83 C65.69 -0.05, 132.42 0.69, 179.9 3.36 M-1.28 1.77 C66.53 -1.87, 133.59 -0.06, 176.63 1.25 M177.79 -2.21 C175.65 25.82, 174.85 50.43, 178.51 62.26 M175.6 -1.81 C176.67 20.36, 177.44 35.38, 174.04 61.8 M176.67 58.63 C120.18 58.21, 66.74 58.82, 3.85 62.83 M175.96 60.14 C123.5 62.24, 72.63 63.12, -1.09 59.91 M0.2 62.57 C1.14 46.77, 2.71 32.04, -1.04 -1.02 M-0.25 61.88 C-1.08 46.11, -1.89 33.02, -0.35 -1.97" stroke="#000000" stroke-width="1" fill="none"></path></g></svg>